# xmcd
#
# Track frame offsets: 
#        150
#        21112
#        36112
#        57165
#        78950
#        105952
#        125927
#        143650
#        163202
#        181990
#        200990
#        220815
#        240255
#        266975
#
# Disc length: 3804 seconds
#
# Revision: 37
# Processed by: cddbd v1.5.2PL0 Copyright (c) Steve Scherf et al.
# Submitted via: ExactAudioCopy v1.1
#
DISCID=c70eda0e
DTITLE=B'z - Pleasure
DYEAR=1998
DGENRE=JPop
TTITLE0=LOVE PHANTOM
TTITLE1=love me, I love you
TTITLE2=Easy Come, Easy Go!
TTITLE3=ZERO
TTITLE4=ALONE
TTITLE5=裸足の女神
TTITLE6=愛のままにわがままに僕は君だけを傷つけない
TTITLE7=LADY NAVIGATION
TTITLE8=太陽のKomachi Angel
TTITLE9=BE THERE
TTITLE10=Don't Leave Me
TTITLE11=Bad Communication E.Style
TTITLE12=Calling
TTITLE13=さまよえる蒼い弾丸
EXTD=YEAR: 1998
EXTT0=
EXTT1=
EXTT2=
EXTT3=
EXTT4=
EXTT5=
EXTT6=
EXTT7=
EXTT8=
EXTT9=
EXTT10=
EXTT11=
EXTT12=
EXTT13=
PLAYORDER=
